<?xml version="1.0" encoding="utf-8"?>
<!-- Generator: Adobe Illustrator 17.0.0, SVG Export Plug-In . SVG Version: 6.00 Build 0)  -->
<!DOCTYPE svg PUBLIC "-//W3C//DTD SVG 1.1//EN" "http://www.w3.org/Graphics/SVG/1.1/DTD/svg11.dtd">
<svg version="1.1" xmlns="http://www.w3.org/2000/svg" xmlns:xlink="http://www.w3.org/1999/xlink" x="0px" y="0px" width="3000px"
	 height="2000px" viewBox="0 0 3000 2000" enable-background="new 0 0 3000 2000" xml:space="preserve">
<g id="BACKGROUND" display="none">
	<rect display="inline" fill="#FFFFFF" width="3000" height="2000"/>
</g>
<g id="OBJECTS">
	<g>
		<g>
			<g>
				<g opacity="0.5">
					<path fill="#E2EDFF" d="M2499.435,1428.559c-45.59-134.314-167.81-244.464-309.016-257.866
						c-133.291-12.651-261.986,56.623-395.869,57.858c-216.508,1.997-396.207-169.759-608.309-213.261
						c-246.498-50.557-518.542,102.596-603.169,339.567c-54.649,153.027-26.66,328.5,59.998,465.139h1817.41
						C2522.325,1699.972,2542.749,1556.17,2499.435,1428.559z"/>
				</g>
				<g>
					<path fill="#FFFFFF" d="M802.036,1450.026c175.666-27.357,331.656-152.756,398.94-316.886
						c14.148-34.512,24.09-70.192,30.734-106.513c-1.326-0.386-2.651-0.772-3.979-1.149c-4.458,24.414-10.336,48.59-18.07,72.365
						c-27.415,84.286-78.145,159.985-143.646,219.459c-65.056,59.07-144.818,102.299-230.552,122.185
						c-88.845,20.608-182.671,14.8-269.271-13.133c-0.767-0.248-1.521-0.532-2.287-0.783c-0.25,1.313-0.506,2.625-0.746,3.939
						C639.798,1454.587,722.007,1462.489,802.036,1450.026z"/>
					<path fill="#FFFFFF" d="M1087.422,1568.635c131.13,17.531,265.843,26.907,395.412-6.276
						c58.772-15.051,115.559-38.969,165.33-73.935c49.968-35.105,91.335-80.981,124.137-132.311
						c26.232-41.048,46.695-84.715,63.135-129.942c-1.446,0.148-2.891,0.307-4.338,0.442
						c-11.226,30.578-24.335,60.494-39.942,89.466c-30.237,56.13-69.38,107.882-118.608,148.719
						c-48.54,40.266-105.886,68.619-166.074,86.821c-127.15,38.451-261.806,32.74-392.065,16.507
						c-142.501-17.758-285.121-47.826-429.44-41.397c-43.129,1.921-86.759,7.063-129.396,16.389c0.06,1.394,0.091,2.788,0.162,4.182
						c34.766-7.709,70.205-12.613,105.476-15.178C804.271,1521.72,946.263,1549.763,1087.422,1568.635z"/>
					<path fill="#FFFFFF" d="M2370.739,1662.828c-50.394-11.052-100.12-26.462-146.107-50.132
						c-42.849-22.054-83.229-51.448-111.833-90.715c-29.4-40.359-43.438-89.293-39.055-139.116
						c8.051-91.516,67.707-164.658,144.819-208.155c-1.97-0.371-3.95-0.699-5.929-1.032
						c-64.735,37.403-116.321,94.69-136.049,170.006c-12.58,48.025-9.69,99.007,11.386,144.221
						c20.211,43.359,54.965,78.087,94.299,104.526c41.514,27.905,88.436,47.457,136.354,61.311
						c57.508,16.626,116.906,26.752,176.636,30.568c4.789,0.306,9.584,0.501,14.377,0.725c0.297-1.321,0.59-2.642,0.877-3.965
						C2463.516,1678.915,2416.703,1672.909,2370.739,1662.828z"/>
					<path fill="#FFFFFF" d="M1322.147,1128.708c9.095-19.226,19.274-37.9,30.436-55.948c-1.229-0.559-2.457-1.12-3.687-1.676
						c-7.998,12.968-15.501,26.248-22.443,39.832c-17.286,33.824-31.24,69.377-41.409,105.98
						c-11.11,39.99-20.509,83.94-10.231,125.104c7.936,31.782,28.748,61.454,60.38,72.882
						c35.782,12.928,74.663-0.489,106.351-18.047c34.536-19.136,66.154-44.689,96.079-70.294
						c30.108-25.762,58.505-53.521,84.972-83.01c10.666-11.884,21-24.055,31.015-36.478c-1.416-0.423-2.833-0.845-4.247-1.278
						c-48.39,59.813-104.318,113.516-166.47,159.09c-31.86,23.362-67.76,47.004-108.143,50.745
						c-40.118,3.716-73.681-19.362-89.567-55.491c-17.611-40.054-10.445-85.695-0.337-126.701
						C1293.729,1197.387,1306.279,1162.25,1322.147,1128.708z"/>
					<path fill="#FFFFFF" d="M2399.687,1558.303c41.465,2.209,83.083-8.094,121.082-26.174c-0.102-1.207-0.188-2.415-0.3-3.621
						c-31.479,14.916-65.54,24.102-100.991,25.812c-39.757,1.917-80.37-8.492-109.984-36.139
						c-26.717-24.943-40.103-61.197-29.879-97.047c4.538-15.912,13.513-30.82,26.447-41.294
						c16.794-13.601,38.457-17.056,59.454-17.695c18.914-0.576,37.917,0.775,56.745-1.635c13.729-1.757,27.147-5.516,39.862-10.956
						c-0.705-1.147-1.391-2.305-2.108-3.445c-4.158,1.762-8.387,3.36-12.69,4.737c-38.8,12.415-80.321,0.38-118.808,12.672
						c-30.061,9.601-50.068,36.513-55.144,67.144c-5.311,32.054,6.721,63.332,29.146,86.299
						C2328.094,1543.152,2363.546,1556.378,2399.687,1558.303z"/>
					<path fill="#FFFFFF" d="M2017.928,1690.473c-17.983-42.826-35.959-85.655-53.949-128.478
						c-12.586-29.961-25.82-62.637-52.962-82.473c-28.656-20.942-67.646-20.943-99.67-8.128
						c-34.015,13.611-61.03,40.029-84.1,67.741c-45.938,55.183-78.899,120.761-97.192,190.123
						c-7.844,29.742-12.97,60.146-15.304,90.74h4.108c6.922-89.605,37.84-177.358,90.219-250.795
						c21.422-30.035,46.384-59.87,77.491-80.267c31.964-20.96,74.715-31.063,110.457-13.266
						c32.655,16.26,48.154,51.893,61.555,83.719c16.738,39.75,33.397,79.534,50.095,119.301
						c19.779,47.103,39.558,94.206,59.336,141.308h4.303C2054.186,1776.822,2036.057,1733.648,2017.928,1690.473z"/>
				</g>
			</g>
			<g opacity="0.5">
				<path fill="#E2EDFF" d="M1847.769,941.525c-25.948,0.778-51.958-0.294-82.125-11.223
					c-64.22-23.264-144.222,14.858-144.754,88.956c-0.413,57.512,52.47,95.574,101.46,113.113
					c92.411,33.083,283.822,15.74,274.814-121.562c-2.883-43.935-26.239-64.383-68.261-69.231
					C1899.248,938.156,1873.539,940.752,1847.769,941.525z"/>
			</g>
		</g>
		<g>
			<g>
				<g>
					<path fill="#FFB900" d="M2193.512,562.76c-25.186-8.719-42.405-23.846-61.806-46.01l8.214-17.49
						c20.375,26.975,27.049,41.581,52.507,39.474L2193.512,562.76z"/>
				</g>
			</g>
			<g>
				<g>
					<path fill="#007BFF" d="M2482.669,950.258c-18.739-24.368-27.105-49.387-34.047-82.245l15.974-10.596
						c5.496,37.881,4.499,55.551,28.737,70.224L2482.669,950.258z"/>
				</g>
			</g>
			<g>
				<g>
					<path fill="#14CCA1" d="M1855.098,628.575c-26.521,6.592-48.574,2.805-75.614-6.094l-0.051-20.549
						c29.979,12.694,42.268,22.072,64.403,5.527L1855.098,628.575z"/>
				</g>
			</g>
			<g>
				<g>
					<path fill="#FF5C33" d="M1173.328,544.976c-12.537,17.825-26.62,27.357-45.566,36.615l-8.137-11.703
						c22.121-8.65,32.836-9.813,38.943-30.994L1173.328,544.976z"/>
				</g>
			</g>
			<g>
				<g>
					<path fill="#007BFF" d="M737.122,1063.78c-29.786,1.496-52.093-6.744-78.312-21.203l5.404-21.037
						c28.319,18.923,38.819,30.952,66.612,18.404L737.122,1063.78z"/>
				</g>
			</g>
			<g>
				<g>
					<path fill="#14CCA1" d="M791.442,553.155c-22.727-16.519-34.63-36.771-46.013-64.595l15.474-14.488
						c10.486,32.836,11.634,49.232,38.937,55.255L791.442,553.155z"/>
				</g>
			</g>
			<g>
				<g>
					<path fill="#007BFF" d="M927.434,735.4c-25.754,17.977-50.048,23.209-81.157,25.163l-6.434-21.52
						c35.368,0.797,51.163,5.5,69.228-21.08L927.434,735.4z"/>
				</g>
			</g>
			<g>
				<g>
					<path fill="#FFB900" d="M1296.218,239.569c-25.828,15.188-49.485,18.249-79.492,17.609l-4.886-21.197
						c33.934,3.629,48.826,9.426,67.785-14.651L1296.218,239.569z"/>
				</g>
			</g>
			<g>
				<path fill="#14CCA1" d="M1662.275,291.948c-21.525-10.622-35.454-25.991-50.707-47.835l8.769-14.519
					c15.7,26.213,20.348,39.902,43.045,40.98L1662.275,291.948z"/>
			</g>
			<g>
				<g>
					<path fill="#FF5C33" d="M1997.41,375.975c23.559-13.875,36.633-31.993,49.67-57.23l-14.413-14.625
						c-12.466,29.987-14.641,45.244-42.069,48.984L1997.41,375.975z"/>
				</g>
			</g>
			<g opacity="0.837">
				<g>
					<path fill="#FF5C33" d="M1221.776,1121.49c-23.75-14.146-38.516-32.97-54.329-59.294l11.013-15.692
						c16.012,31.339,20.331,47.366,46.093,50.759L1221.776,1121.49z"/>
				</g>
			</g>
			<g>
				<g>
					<path fill="#FF5C33" d="M2007.385,908.624c-9.452,29.442-24.048,48.947-45.038,70.576l-14.962-10.986
						c25.326-22.461,38.742-29.428,38.605-59.931L2007.385,908.624z"/>
				</g>
			</g>
			<circle fill="#FF5C33" cx="1032" cy="421.33" r="10"/>
			<circle fill="#FFB900" cx="1826.667" cy="421.33" r="10"/>
			<circle fill="#FF5C33" cx="2088" cy="725.997" r="10"/>
			<circle fill="#14CCA1" cx="1048" cy="827.33" r="10"/>
			
				<rect x="577.951" y="725.525" transform="matrix(0.7071 -0.7071 0.7071 0.7071 -349.6032 635.3159)" fill="#FFB900" width="28.284" height="28.284"/>
			
				<rect x="2314.708" y="692.762" transform="matrix(0.7071 -0.7071 0.7071 0.7071 182.2479 1853.7927)" fill="#14CCA1" width="28.284" height="28.284"/>
		</g>
		<g>
			<path fill="#FFB900" d="M1639.509,1419.411l-168.478,0.205l-0.048-39.346c-0.017-13.895,11.233-25.173,25.129-25.19
				l118.159-0.144c13.895-0.017,25.173,11.234,25.19,25.129L1639.509,1419.411z"/>
			<rect x="1500.747" y="1184.493" fill="#FFB900" width="109" height="193"/>
			<polygon fill="#E8950C" points="1500.747,1267.901 1500.747,1184.493 1609.747,1184.493 1609.64,1224.997 			"/>
			<path fill="#FFB900" d="M1742.683,1035.645l-6.953-22.973c127.633-38.627,181.746-118.467,165.438-244.08
				c-0.176-0.182-1.527-0.973-3.188-0.516l-17.57,4.752c-7.031,1.902-11.758,7.166-11.758,13.098v27.219
				c0,16.518-13.941,29.725-31.734,30.067c-18.387,0.354-49.859,0.947-54.047,0.947v-24c2.871,0,22.902-0.354,53.586-0.943
				c4.441-0.084,8.195-2.865,8.195-6.07v-27.219c0-16.918,11.852-31.49,29.488-36.266l17.57-4.752
				c7.73-2.086,15.918-0.783,22.488,3.6c5.957,3.979,9.883,10.174,10.77,16.996c8.57,66.027-1.039,121.754-28.574,165.631
				C1866.589,978.633,1814.874,1013.795,1742.683,1035.645z"/>
			<path fill="#FFB900" d="M1367.599,1035.645c-72.189-21.85-123.906-57.012-153.713-104.51
				c-27.533-43.875-37.146-99.603-28.574-165.633c0.887-6.822,4.813-13.018,10.773-16.996c6.563-4.381,14.76-5.684,22.486-3.598
				l17.564,4.752c17.641,4.773,29.492,19.348,29.492,36.266v27.219c0,3.205,3.752,5.984,8.195,6.07
				c30.682,0.59,50.713,0.943,53.586,0.943v24c-4.191,0-35.662-0.594-54.047-0.947c-17.795-0.342-31.734-13.549-31.734-30.067
				v-27.219c0-5.932-4.727-11.195-11.762-13.098l-17.564-4.752c-1.67-0.457-3.02,0.334-3.25,0.709
				c-16.248,125.42,37.869,205.26,165.5,243.887L1367.599,1035.645z"/>
			<path fill="#FFB900" d="M1795.18,771.017l-26.08,325.68c-3.12,39.04-22.16,73.28-50.44,96.52c-24.12,19.84-55,31.68-88.48,31.68
				H1480.3c-72.64,0-133.08-55.8-138.88-128.2l-13.52-169l-12.56-156.68c-1.96-24.52,17.4-45.52,42.04-45.52h395.76
				C1777.74,725.497,1797.14,746.497,1795.18,771.017z"/>
			<path fill="#E8950C" d="M1718.66,1193.217c-24.12,19.84-55,31.68-88.48,31.68H1480.3c-72.64,0-133.08-55.8-138.88-128.2
				l-13.52-169C1422.82,1047.657,1574.18,1150.577,1718.66,1193.217z"/>
			<rect x="1480.301" y="1222.898" fill="#001F40" width="156.172" height="4"/>
			<rect x="1496.111" y="1353.082" fill="#001F40" width="29.029" height="4"/>
			<rect x="1586.113" y="1353.082" fill="#001F40" width="29.027" height="4"/>
			<path fill="#FFB900" d="M1678.728,1514.675l-246.95,0.301l-0.079-65.235c-0.03-24.332,19.671-44.081,44.003-44.111l158.837-0.194
				c24.332-0.03,44.081,19.671,44.11,44.003L1678.728,1514.675z"/>
			<rect x="1471.141" y="1403.996" fill="#E8950C" width="168.25" height="4"/>
			<ellipse opacity="0.6" fill="#FFFFFF" cx="1683.64" cy="865.997" rx="22" ry="43"/>
		</g>
		<g>
			<rect x="949.93" y="1717.671" fill="#FFFFFF" width="1211.419" height="102.976"/>
			<rect x="1150.114" y="1614.696" fill="#FFFFFF" width="811.053" height="102.976"/>
			<rect x="1290.388" y="1511.72" fill="#FFFFFF" width="530.503" height="102.976"/>
			<rect x="1257.24" y="1717.677" fill="#FF5C33" width="596.8" height="102.96"/>
			<rect x="1343.16" y="1614.677" fill="#FF5C33" width="424.96" height="103"/>
			<rect x="1431.28" y="1511.717" fill="#FF5C33" width="248.72" height="102.96"/>
			<rect x="1290.4" y="1590.637" opacity="0.1" fill="#003E80" width="140.88" height="24"/>
			<rect x="1680" y="1590.637" opacity="0.1" fill="#003E80" width="140.88" height="24"/>
			<rect x="1431.28" y="1590.637" opacity="0.3" fill="#4A191B" width="248.72" height="24"/>
			<rect x="1150.12" y="1693.517" opacity="0.1" fill="#003E80" width="193.04" height="24"/>
			<rect x="1768.12" y="1693.517" opacity="0.1" fill="#003E80" width="193.04" height="24"/>
			<rect x="1343.16" y="1693.517" opacity="0.3" fill="#4A191B" width="424.96" height="24"/>
			<rect x="949.92" y="1796.637" opacity="0.1" fill="#003E80" width="307.32" height="24"/>
			<rect x="1854.04" y="1796.637" opacity="0.1" fill="#003E80" width="307.32" height="24"/>
			<rect x="1257.24" y="1796.637" opacity="0.3" fill="#4A191B" width="596.8" height="24"/>
			<polygon fill="#95BEFF" points="951.93,1820.648 947.93,1820.648 947.93,1715.672 1148.119,1715.516 1148.113,1612.695 
				1288.4,1612.637 1288.389,1509.719 1430.303,1509.719 1430.303,1513.719 1292.389,1513.719 1292.4,1616.637 1152.113,1616.695 
				1152.119,1719.516 951.93,1719.672 			"/>
			<polygon fill="#95BEFF" points="2163.348,1820.648 2159.348,1820.648 2159.348,1719.672 1959.16,1719.516 1959.168,1616.695 
				1818.879,1616.637 1818.891,1513.719 1678.688,1513.719 1678.688,1509.719 1822.891,1509.719 1822.879,1612.637 
				1963.168,1612.695 1963.16,1715.516 2163.348,1715.672 			"/>
		</g>
		<g>
			<g>
				<g>
					<polygon fill="#001F40" points="1530.269,815.079 1515.352,864.486 1573.573,882.841 1554.133,850.317 1559.836,821.761 					
						"/>
					
						<rect x="1546.25" y="846.655" transform="matrix(0.4413 0.8973 -0.8973 0.4413 1630.5715 -912.6515)" fill="#FFFFFF" width="4.001" height="13.113"/>
				</g>
				<path fill="#007BFF" d="M1519.973,660.664l40.95,3.927c8.418,0.807,16.662,3.573,23.347,8.753
					c13.009,10.08,18.142,25.774,15.326,41.782c-0.729,4.147-1.611,7.981-2.243,11.245l-33.512,118.861l-50.819-27.115
					l22.673-88.524l-51.601-1.595l-28.146-59.016l10.164-47.053L1519.973,660.664z"/>
			</g>
			<g>
				<g>
					<polygon fill="#001F40" points="1512.9,868.29 1500.232,922.45 1564.107,938.215 1540.975,904.561 1545.159,873.457 					"/>
					<polygon fill="#FFFFFF" points="1529.711,913.324 1527.719,909.856 1539.98,902.826 1541.973,906.295 					"/>
				</g>
				<path fill="#007BFF" d="M1458.294,728.795l43.861,160.016l49.256-5.583l-28.807-169.584
					c-2.787-14.782-3.409-23.86-26.043-35.131l-24.234-13.441l-6.214-43.144l-36.746,23.925l-5.942,56.202
					c-1.439,13.611,8.704,25.628,22.114,26.197L1458.294,728.795"/>
			</g>
			<path fill="#FFFFFF" d="M1522.127,659.829l-73.065,8.303c-8.156,0.927-15.527-4.915-16.487-13.067l-12.749-108.202l60.916-14.857
				l64.63,9.657l-11.862,106.756C1532.843,654.412,1528.119,659.148,1522.127,659.829z"/>
			<g>
				<path fill="#FFBA9A" d="M1370.149,417.551c0,0,5.677-27.901,1.276-26.878c-4.401,1.023-8.934,11.731-8.934,11.731
					s-9.657-23.208-13.364-22.974c-3.707,0.235-2.59,6.119-2.59,6.119s-6.907-3.285-8.709,3.529c0,0-6.907-3.285-6.851,9.366
					c0.021,4.599,3.716,20.583,8.408,39.056l33.091-12.583L1370.149,417.551z"/>
				<path fill="#003E80" d="M1395.64,488.997l-23.165-64.079l-33.091,12.583c5.798,22.83,13.119,49.465,16.925,63.16
					c1.676,6.031,4.711,11.565,8.885,16.23l66.445,79.107l28.667-40.667L1395.64,488.997z"/>
				<g>
					<path fill="#974245" d="M1358.08,415.145c-3.273-3.881-2.996-7.609,0.826-11.08l0.672,0.738
						c-3.395,3.086-3.635,6.256-0.732,9.697L1358.08,415.145z"/>
					
						<rect x="1340.762" y="391.739" transform="matrix(0.3277 0.9448 -0.9448 0.3277 1276.8571 -1009.8518)" fill="#974245" width="14.448" height="1.001"/>
					
						<rect x="1334.61" y="394.356" transform="matrix(0.3183 0.948 -0.948 0.3183 1288.567 -1002.2518)" fill="#974245" width="13.143" height="1.001"/>
					
						<rect x="1328.536" y="396.902" transform="matrix(0.342 0.9397 -0.9397 0.342 1252.7043 -994.1157)" fill="#974245" width="15.278" height="1.002"/>
				</g>
			</g>
			<g>
				<path fill="#FFBA9A" d="M1627.086,378.23c-0.743-12.629-9.28-10.067-9.28-10.067c-1.667-5.5-7.064-1.819-7.064-1.819
					s0.278-3.681-3.436-3.681c-3.715,0-11.421,21.51-11.421,21.51s-5.2-10.4-9.657-11.143c-4.457-0.743,2.971,26.743,2.971,26.743
					l-2.137,8.633l33.628,11.841C1624.437,400.463,1627.369,383.026,1627.086,378.23z"/>
				<path fill="#003E80" d="M1587.063,408.406l-19.423,65.591l-56,74.667l32,33.333l56.78-83.395
					c3.871-4.919,6.55-10.634,7.842-16.759c2.828-13.407,8.158-39.028,12.429-61.595L1587.063,408.406z"/>
				<g>
					<path fill="#974245" d="M1601.414,396.719l-0.828-0.559c2.52-3.729,1.941-6.858-1.766-9.565l0.594-0.809
						C1603.582,388.834,1604.258,392.512,1601.414,396.719z"/>
					
						<rect x="1608.51" y="365.644" transform="matrix(0.9741 0.2259 -0.2259 0.9741 125.8522 -353.8969)" fill="#974245" width="1.003" height="14.448"/>
					
						<rect x="1615.557" y="368.176" transform="matrix(0.9766 0.2149 -0.2149 0.9766 118.2961 -338.5466)" fill="#974245" width="1" height="13.143"/>
					
						<rect x="1620.808" y="369.107" transform="matrix(0.9711 0.2389 -0.2389 0.9711 136.9318 -376.3831)" fill="#974245" width="0.998" height="15.281"/>
				</g>
			</g>
			<g>
				<path fill="#FFBA9A" d="M1479.863,549.954L1479.863,549.954c-6.997,0-12.669-5.672-12.669-12.669v-22.492h25.338v22.492
					C1492.532,544.282,1486.859,549.954,1479.863,549.954z"/>
				<path fill="#001F40" d="M1492.249,518.034c-3.978,14.142-20.182,14.732-25.191,0H1492.249z"/>
				<ellipse fill="#FFBA9A" cx="1479.863" cy="501.83" rx="18.698" ry="21.803"/>
				<path fill="#001F40" d="M1462.749,502.198c1.105-15.026,11.049-18.562,11.049-18.562l12.927-0.221
					c5.303,3.978,9.816,11.473,10.054,19.335l4.42-0.221c2.752-14.688,0.331-29.058-8.176-32.373l4.198-2.099
					c-35.066-7.755-43.753,6.298-39.554,30.936L1462.749,502.198z"/>
				<g>
					
						<ellipse transform="matrix(0.9029 -0.4298 0.4298 0.9029 -74.4254 676.4797)" fill="#FFBA9A" cx="1460.428" cy="503.008" rx="5.156" ry="5.893"/>
					<path fill="#001F40" d="M1461.336,504.482c-0.6-1.695-1.717-2.813-3.414-3.414l0.297-0.836c1.967,0.697,3.26,1.99,3.953,3.953
						L1461.336,504.482z"/>
				</g>
				<g>
					
						<ellipse transform="matrix(-0.9029 -0.4298 0.4298 -0.9029 2638.0457 1601.8208)" fill="#FFBA9A" cx="1499.909" cy="503.008" rx="5.156" ry="5.893"/>
					<path fill="#001F40" d="M1499.002,504.482l-0.836-0.297c0.693-1.963,1.986-3.256,3.951-3.953l0.297,0.836
						C1500.717,501.67,1499.602,502.787,1499.002,504.482z"/>
				</g>
			</g>
			<path fill="#003E80" d="M1466.903,535.342c13.025,43.809,8.625,110.727-6.22,160.838l-52.744,8.172l11.886-157.489
				L1466.903,535.342z"/>
			<path fill="#003E80" d="M1492.403,533.842c3.996,50.73,13.427,124.067,32.084,159.217l31.907-16.308l-11.025-135.089
				L1492.403,533.842z"/>
			<path fill="#001F40" d="M1550.422,883.389c-0.277-1.701-27.809-170.328-32.234-184.596
				c-4.309-13.879-32.141-25.256-32.422-25.369l0.75-1.855c1.182,0.477,28.992,11.848,33.578,26.631
				c4.473,14.402,31.168,177.914,32.305,184.869L1550.422,883.389z"/>
			
				<rect x="1428.24" y="750.996" transform="matrix(0.2747 0.9615 -0.9615 0.2747 1785.3352 -862.8802)" fill="#001F40" width="72.801" height="1.999"/>
			<polygon fill="#001F40" points="1550.297,731.992 1535.602,730.59 1535.789,728.598 1550.484,730 			"/>
		</g>
		<g>
			<g>
				<g>
					<g>
						<g>
							<g>
								<polygon fill="#001F40" points="873.356,1774.13 865.916,1821.375 929.53,1821.375 904.605,1796.45 906.465,1773.014 
																	"/>
								
									<rect x="896.282" y="1792.832" transform="matrix(0.5071 0.8619 -0.8619 0.5071 1994.2251 113.0339)" fill="#FFFFFF" width="3.998" height="14.675"/>
							</g>
							<path fill="#14CCA1" d="M1004.721,1430.361c-0.938,5.625-1.83,11.205-2.857,16.741c-1.741,10.446-3.571,20.803-5.446,31.026
								c-6.696,36.784-14.018,72.364-21.964,106.827c0,0.045,0,0.045,0,0.089c-15.848,69.551-33.972,134.638-53.971,196.11h-56.561
								c22.767-108.657,44.82-216.154,51.918-299.365c1.072-12.232,1.786-23.972,2.143-35.088L1004.721,1430.361z"/>
						</g>
						<g>
							<g>
								<polygon fill="#001F40" points="1002.444,1771.898 999.682,1820.472 1067.526,1821.375 1040.59,1796.45 1042.6,1773.014 
																	"/>
								
									<rect x="1031.754" y="1792.389" transform="matrix(0.4782 0.8783 -0.8783 0.4782 2120.459 31.4587)" fill="#FFFFFF" width="4.003" height="15.562"/>
							</g>
							<path fill="#14CCA1" d="M1049.988,1779.903h-59.105c-4.152-67.185-9.196-132.852-16.428-194.859c0-0.045,0-0.045,0-0.089
								c-4.241-36.427-9.196-71.649-15.178-105.13c-1.919-10.803-3.973-21.428-6.116-31.874l48.704-0.848l24.24-0.402
								c1.607,9.91,3.125,19.865,4.464,29.865C1044.318,1574.419,1048.202,1676.648,1049.988,1779.903z"/>
						</g>
					</g>
					<path opacity="0.3" fill="#4A191B" d="M1030.568,1476.565l-34.15,1.563l-37.142,1.696l-43.436,1.964
						c1.072-12.232,1.786-23.972,2.143-35.088l86.738-16.339c-0.938,5.625-1.83,11.205-2.857,16.741l24.24-0.402
						C1027.711,1456.61,1029.229,1466.565,1030.568,1476.565z"/>
					<polygon fill="#001F40" points="970.688,1610.645 968.727,1610.246 988.816,1510.547 990.777,1510.945 					"/>
				</g>
				<g>
					<path fill="#007BFF" d="M989.052,1312.091c-29.943,3.237-54.406,0.738-78.218-13.611l-23.168,39.333l26.984,24.128
						l-5.425,85.111c-0.319,5.009,2.391,9.723,6.88,11.968c1.735,0.867,3.647,1.319,5.586,1.319h102.184
						c5.564,0,10.538-3.469,12.462-8.689c0.467-1.268,0.738-2.6,0.804-3.949l4.365-90.223l45.75-10.814l-10.55-36.044
						C1041.847,1314.685,1010.399,1316.876,989.052,1312.091z"/>
					<g>
						<path fill="#FFBA9A" d="M910.84,1298.49l-23.169,39.329l-32.097-28.704c-0.714-0.625-1.384-1.295-2.053-1.964
							c-6.205-6.295-10.58-14.196-12.5-22.856c-0.268-1.116-0.536-2.322-0.759-3.527c-7.053-31.293-20.401-92.229-19.731-97.586
							c0.938-7.232,8.348-4.062,8.348-4.062c0.58-6.92,6.339-3.17,6.339-3.17c0-3.928,1.295-4.866,5.223-4.687
							c3.884,0.223,9.107,23.838,9.107,23.838s5.759-12.276,10.044-11.339c4.286,0.893-3.705,24.553-3.705,24.553l27.901,68.435
							C892.894,1285.946,901.823,1293.044,910.84,1298.49z"/>
						<path opacity="0.2" fill="#FF5C33" d="M857.896,1296.258c0,4.241-1.652,8.08-4.375,10.892
							c-6.205-6.295-10.58-14.196-12.5-22.856c-0.268-1.116-0.536-2.322-0.759-3.527c0.67-0.089,1.339-0.134,2.009-0.134
							C850.931,1280.634,857.896,1287.643,857.896,1296.258z"/>
						<g>
							<path fill="#974245" d="M844.533,1208.828c-3.49-3.684-3.426-7.422,0.193-11.109l0.715,0.703
								c-3.217,3.273-3.275,6.453-0.182,9.719L844.533,1208.828z"/>
							
								<rect x="831.216" y="1180.37" transform="matrix(0.2043 0.9789 -0.9789 0.2043 1821.3431 120.9935)" fill="#974245" width="10.056" height="1.001"/>
							<polygon fill="#974245" points="830.84,1187.426 828.4,1179.266 829.357,1178.977 831.797,1187.137 							"/>
							
								<rect x="821.698" y="1185.2" transform="matrix(0.259 0.9659 -0.9659 0.259 1757.0087 81.1017)" fill="#974245" width="7.894" height="0.999"/>
						</g>
					</g>
					<g>
						<path fill="#FFBA9A" d="M1134.404,1321.391c-0.446,0.759-0.938,1.473-1.384,2.232l-2.991,4.464
							c-4.063,6.116-10.223,10.535-17.276,12.5c-0.357,0.134-0.759,0.223-1.161,0.313l-24.33,5.759l-10.535-36.026
							c9.732-1.161,19.731-2.411,29.865-3.75l30.133-56.918c0,0,0-24.196,3.348-24.91c3.348-0.759,5.982,14.106,5.982,14.106
							s12.991-19.687,17.098-19.687c4.107,0,2.991,5.58,2.991,5.58s3.795-4.687,6.071-2.455c1.161,1.161,0.982,5.401,0.982,5.401
							s1.498-1.402,4.45-0.164C1183.367,1230.236,1165.162,1272.063,1134.404,1321.391z"/>
						<path opacity="0.2" fill="#FF5C33" d="M1134.404,1321.391c-0.446,0.759-0.938,1.473-1.384,2.232l-2.991,4.464
							c-4.063,6.116-10.223,10.535-17.276,12.5c-0.625-1.652-0.938-3.393-0.938-5.223c0-8.66,7.009-15.625,15.625-15.625
							C1129.94,1319.74,1132.306,1320.32,1134.404,1321.391z"/>
						<g>
							<path fill="#974245" d="M1148.652,1253.016l-0.504-0.867c3.895-2.262,4.738-5.328,2.58-9.375l0.883-0.469
								C1154.039,1246.859,1153.045,1250.461,1148.652,1253.016z"/>
							
								<rect x="1163.643" y="1223.332" transform="matrix(0.88 0.475 -0.475 0.88 723.1572 -405.5407)" fill="#974245" width="1.003" height="10.054"/>
							
								<rect x="1170.25" y="1226.342" transform="matrix(0.8873 0.4612 -0.4612 0.8873 699.7833 -401.1952)" fill="#974245" width="0.999" height="9.679"/>
							
								<rect x="1174.474" y="1229.088" transform="matrix(0.8519 0.5237 -0.5237 0.8519 819.8195 -432.7387)" fill="#974245" width="1" height="7.897"/>
						</g>
					</g>
					
						<rect x="881.335" y="1354.331" transform="matrix(0.7662 0.6426 -0.6426 0.7662 1083.3785 -266.7965)" fill="#001F40" width="53.946" height="1.999"/>
					
						<rect x="1040.475" y="1335.293" transform="matrix(0.9987 0.0508 -0.0508 0.9987 70.6916 -51.1781)" fill="#001F40" width="1.999" height="57.742"/>
					<path fill="#001F40" d="M989.1,1349.461c-6.523,0-13.17-2.93-18.176-8.102l1.438-1.391c5.191,5.363,12.244,8.098,18.91,7.371
						c5.643-0.637,10.443-3.785,13.516-8.863l1.711,1.039c-3.4,5.617-8.729,9.102-15.002,9.809
						C990.701,1349.414,989.902,1349.461,989.1,1349.461z"/>
				</g>
				<g>
					<path fill="#FFBA9A" d="M989.534,1333.299L989.534,1333.299c-7.975,0.894-15.164-4.846-16.058-12.821l-3.844-34.299
						l28.879-3.237l3.844,34.299C1003.249,1325.216,997.509,1332.405,989.534,1333.299z"/>
					<path fill="#001F40" d="M979.28,1299.067c6.648,7.632,14.183,13.027,22.944,15.329l-2.075-18.514L979.28,1299.067z"/>
					<path fill="#FFBA9A" d="M1013.93,1261.961c0,0,5.552,36.422-7.156,41.081c-11.875,4.353-27.494-3.975-27.494-3.975
						l-10.483-30.578l13.604-12.403L1013.93,1261.961z"/>
					<path fill="#001F40" d="M974.285,1279.745c0.733-6.972,3.468-12.994,10.559-16.949c20.691,8.383,33.639,1.971,42.93-11.427
						c0,0-11.843,2.54-18.974-2.063c-7.131-4.603-25.499-17.98-37.108,1.403c-16.235,7.529-12.794,20.618-6.228,29.033
						L974.285,1279.745z"/>
					<g>
						
							<ellipse transform="matrix(0.8653 -0.5012 0.5012 0.8653 -512.022 659.4438)" fill="#FFBA9A" cx="971.123" cy="1282.524" rx="7.505" ry="8.656"/>
						<path fill="#001F40" d="M972.35,1286.207c-0.238-3.211-1.598-5.406-4.158-6.703l0.906-1.781
							c3.189,1.617,4.955,4.422,5.248,8.336L972.35,1286.207z"/>
					</g>
				</g>
			</g>
			<g>
				<g>
					<path fill="#FFFFFF" d="M958.308,975.33c38.292,0,69.333,31.042,69.333,69.333c0,26.839-15.277,50.068-37.585,61.591
						l6.918,35.742l-24.702-29.407c-4.511,0.922-9.181,1.407-13.965,1.407c-38.292,0-69.333-31.042-69.333-69.333
						C888.975,1006.372,920.016,975.33,958.308,975.33z"/>
					<path fill="#95BEFF" d="M1000.404,1149.188l-28.904-34.41c-4.328,0.809-8.76,1.219-13.191,1.219
						c-39.334,0-71.334-32-71.334-71.332c0-39.332,32-71.334,71.334-71.334s71.334,32.002,71.334,71.334
						c0,26.266-14.268,50.137-37.342,62.664L1000.404,1149.188z M973.039,1110.391l20.506,24.414l-5.736-29.641l1.33-0.688
						c22.516-11.629,36.504-34.551,36.504-59.813c0-37.129-30.205-67.334-67.334-67.334s-67.334,30.205-67.334,67.334
						c0,37.129,30.205,67.332,67.334,67.332c4.566,0,9.129-0.461,13.564-1.367L973.039,1110.391z"/>
				</g>
				<g>
					<circle fill="#95BEFF" cx="926.001" cy="1046.305" r="9.692"/>
					<circle fill="#95BEFF" cx="958.308" cy="1046.305" r="9.692"/>
					<circle fill="#95BEFF" cx="990.616" cy="1046.305" r="9.692"/>
				</g>
			</g>
		</g>
		<g>
			<g>
				<g>
					<path fill="#FF5C33" d="M2025.499,1247.83l-41.697,84.018l-29.452,20.884l16.856,21.814c7.708-3.355,15.092-6.621,20.753-9.142
						c7.013-3.123,13.294-7.67,18.459-13.351l30.947-34.042L2025.499,1247.83z"/>
					<path fill="#FFBA9A" d="M1943.213,1360.629c0,0-27.536-0.709-26.66,7.472c0.83,7.749,18.542,12.453,18.542,12.453
						s-9.783,10.613-6.365,10.793c2.805,0.148,23.639-8.603,42.475-16.802l-16.856-21.814L1943.213,1360.629z"/>
				</g>
				<g>
					<polygon fill="#001F40" points="2110.65,1661.366 2109.976,1716.618 2044.617,1716.618 2074.938,1689.666 2078.307,1658.671 
											"/>
					<polygon fill="#FFFFFF" points="2083.707,1700.809 2073.555,1691.113 2076.32,1688.223 2086.473,1697.918 					"/>
				</g>
				<g>
					<polygon fill="#001F40" points="2135.86,1443.215 2187.076,1422.476 2212.344,1482.754 2175.765,1465.209 2145.877,1474.085 
											"/>
					
						<rect x="2176.276" y="1451.634" transform="matrix(0.9339 0.3575 -0.3575 0.9339 665.514 -682.399)" fill="#FFFFFF" width="3.999" height="14.041"/>
				</g>
				<polygon fill="#007BFF" points="2010.739,1376.496 2062.012,1668.316 2118.668,1666.328 2083.879,1340.309 				"/>
				<path fill="#007BFF" d="M2045.793,1361.736l5.055,152.668c0.295,8.899,5.524,16.893,13.56,20.728l0,0
					c7.06,3.37,15.325,3.061,22.114-0.825l68.123-38.996l-3.136-60.515l-38.744,14.391l-0.184-94.093L2045.793,1361.736z"/>
				<g>
					<path fill="#FF5C33" d="M2184.995,1265.429l-54.599-31.985c-5.758-3.373-12.152-5.518-18.779-6.299l-35.198-4.15l-29.237,9.154
						c-17.16,5.373-29.206,20.801-30.258,38.751l-6.186,105.596l101.842-21.402l8.118-73.06l58.754,27.571
						c11.216,5.586,24.847,1.762,31.502-8.854c13.448-21.455,35.323-57.275,49.339-84.925l-33.416-11.857L2184.995,1265.429z"/>
					<path fill="#FFBA9A" d="M2266.635,1176.318c0,0,1.66-4.428-0.553-5.812c-2.214-1.384-4.705,1.107-4.705,1.107
						s2.491-6.088-1.107-7.195s-17.435,19.095-17.435,19.095s-1.66-12.73-5.258-12.453s-5.812,25.737-5.812,25.737l-4.887,7.172
						l33.416,11.857c8.204-16.185,13.72-29.577,13.26-35.633C2273.046,1173.518,2266.635,1176.318,2266.635,1176.318z"/>
					<g>
						<path fill="#974245" d="M2244.398,1196.469l-0.609-0.797c3.574-2.738,4.02-5.887,1.367-9.629l0.813-0.578
							C2248.957,1189.676,2248.43,1193.379,2244.398,1196.469z"/>
						
							<rect x="2259.049" y="1168.952" transform="matrix(0.8174 0.5761 -0.5761 0.8174 1088.8621 -1087.2784)" fill="#974245" width="1.004" height="10.054"/>
						
							<rect x="2263.776" y="1174.285" transform="matrix(0.7669 0.6417 -0.6417 0.7669 1284.0107 -1178.3583)" fill="#974245" width="0.998" height="8.519"/>
						
							<rect x="2266.881" y="1178.655" transform="matrix(0.7847 0.6199 -0.6199 0.7847 1221.3966 -1150.9525)" fill="#974245" width="0.996" height="7.893"/>
					</g>
				</g>
				<g>
					<path fill="#E8950C" d="M2103.699,1181.764c-0.873,12.963-12.003,25.266-26.186,24.31
						c-14.183-0.955-29.996-15.905-29.123-28.868s15.519-19.68,29.726-19.218
						C2098.045,1158.637,2104.572,1168.801,2103.699,1181.764z"/>
					<path fill="#FFBA9A" d="M2075.134,1241.003L2075.134,1241.003c-7.411-0.499-13.014-6.912-12.515-14.323l2.053-30.486
						l26.838,1.808l-2.053,30.486C2088.958,1235.899,2082.545,1241.502,2075.134,1241.003z"/>
					<path fill="#001F40" d="M2083.132,1214.288c-6.073,6.409-12.664,11.272-20.513,12.392l1.101-14.531L2083.132,1214.288z"/>
					<path fill="#FFBA9A" d="M2054.133,1178.425c0,0-5.243,34.597,6.574,38.306s26.467-3.765,26.467-3.765l2.871-26.158
						l-3.293-17.004L2054.133,1178.425z"/>
					<path fill="#E8950C" d="M2089.614,1197.319c-3.314-3.708-6.603-9.864-7.371-16.169c-8.493,3.692-18.823,4.085-30.635,1.82
						l3.505-10.859l25.851-4.916l13.335,3.811L2089.614,1197.319z"/>
					<g>
						
							<ellipse transform="matrix(0.7854 0.619 -0.619 0.7854 1190.3428 -1038.3413)" fill="#FFBA9A" cx="2092.587" cy="1197.45" rx="6.158" ry="7.126"/>
						<path fill="#001F40" d="M2090.949,1200.602l-1.992-0.141c0.363-5.145,3.566-6.32,6.188-6.402l0.063,2
							C2092.48,1196.141,2091.168,1197.543,2090.949,1200.602z"/>
					</g>
					<circle fill="#E8950C" cx="2101.809" cy="1159.146" r="16.709"/>
				</g>
				
					<rect x="2013.584" y="1261.373" transform="matrix(0.9978 0.0665 -0.0665 0.9978 92.174 -131.0744)" fill="#001F40" width="1.997" height="114.745"/>
				<polygon fill="#001F40" points="2147.379,1295.387 2103.879,1273.387 2104.785,1271.605 2148.285,1293.605 				"/>
				<path fill="#001F40" d="M2072.777,1255.191c-0.797,0-1.586-0.066-2.371-0.203c-5.625-0.984-9.891-5.379-11.703-12.063
					l1.93-0.523c1.602,5.902,5.289,9.773,10.121,10.617c5.762,1.012,12.199-2.41,16.758-8.93l1.641,1.148
					C2084.738,1251.543,2078.641,1255.191,2072.777,1255.191z"/>
				<path fill="#001F40" d="M2073.98,1538.219c-3.105,0-5.738-0.516-7.91-1.25c-9.313-3.145-13.691-10.996-14.703-14.711
					c-3.988-14.617-5.953-130.645-6.035-135.578l2-0.031c0.02,1.203,2.043,120.707,5.965,135.086
					c1.066,3.898,5.516,10.672,13.414,13.34c9.852,3.332,22.414-0.551,36.348-11.203l1.219,1.586
					C2091.398,1535.305,2081.355,1538.219,2073.98,1538.219z"/>
				
					<rect x="2115.918" y="1410.585" transform="matrix(0.343 0.9393 -0.9393 0.343 2750.4163 -1037.556)" fill="#001F40" width="2.004" height="73.623"/>
			</g>
			<g>
				<g>
					<path fill="#FFFFFF" d="M2141,913.33c-38.292,0-69.334,31.042-69.334,69.333c0,26.839,15.278,50.068,37.585,61.591
						l-6.918,35.742l24.702-29.407c4.511,0.922,9.181,1.407,13.965,1.407c38.292,0,69.333-31.042,69.333-69.333
						C2210.333,944.372,2179.291,913.33,2141,913.33z"/>
					<path fill="#95BEFF" d="M2098.902,1087.188l8.102-41.859c-23.07-12.527-37.34-36.398-37.34-62.664
						c0-39.334,32-71.334,71.336-71.334c39.332,0,71.332,32,71.332,71.334c0,39.332-32,71.332-71.332,71.332
						c-4.434,0-8.863-0.41-13.191-1.219L2098.902,1087.188z M2141,915.33c-37.129,0-67.336,30.205-67.336,67.334
						c0,25.262,13.988,48.184,36.504,59.812l1.328,0.688l-5.734,29.641l20.508-24.414l1.168,0.238
						c4.434,0.906,8.996,1.367,13.563,1.367c37.129,0,67.332-30.203,67.332-67.332S2178.129,915.33,2141,915.33z"/>
				</g>
				<g>
					<circle fill="#95BEFF" cx="2108.692" cy="982.363" r="9.692"/>
					<circle fill="#95BEFF" cx="2140.999" cy="982.363" r="9.692"/>
					<circle fill="#95BEFF" cx="2173.307" cy="982.363" r="9.692"/>
				</g>
			</g>
		</g>
		<rect x="456" y="1817.996" fill="#001F40" width="2144" height="4"/>
	</g>
</g>
</svg>
